<svg width="500" height="500" viewBox="0 0 500 500" fill="none" xmlns="http://www.w3.org/2000/svg">
<path d="M76.4719 230.107C77.4516 229.343 80.3038 227.577 81.4563 226.891C130.346 197.802 179.229 168.647 228.088 139.512L270.357 114.277C280.245 108.371 293.16 99.914 303.712 96.1867C318.978 90.6448 335.528 89.6785 351.333 93.4064C372.761 98.5964 391.236 112.115 402.655 130.972C414.002 150.227 417.251 173.196 411.692 194.847C407.096 212.661 396.114 230.674 381.366 241.737C374.637 246.786 364.347 252.495 356.921 256.894C362.65 267.588 373.455 285.079 380.046 295.484C344.281 316.72 308.448 338.526 272.508 359.373C278.262 348.254 280.382 338.078 282.039 325.869C303.887 313.066 325.64 300.104 347.298 286.973L274.105 164.127C283.819 158.306 313.735 139.388 322.926 136.813C329.005 135.13 335.411 135.034 341.534 136.534C362.511 141.619 374.514 163.367 369.159 184.003C364.072 203.601 350.068 209.12 334.113 218.466C337.587 224.408 341.235 230.359 344.783 236.267C366.12 223.699 382.003 215.783 388.854 188.876C392.69 173.53 390.303 157.292 382.216 143.7C374.355 130.292 361.456 120.587 346.393 116.747C319.602 110.037 303.561 122.33 282.213 135.064L245.1 157.207L253.652 171.597C243.262 172.462 229.363 171.218 219.195 173.157C217.097 173.556 206.489 180.194 204.001 181.683L176.457 198.151L120.319 231.584C111.094 237.069 100.154 243.22 91.2228 248.953C83.5202 253.93 78.1366 261.788 76.2785 270.766C74.4695 279.61 76.2697 288.809 81.2791 296.317C89.5099 308.531 103.087 310.692 116.749 310.174C126.485 309.806 136.251 309.494 145.988 309.176L189.054 307.873C204.8 307.277 229.989 302.793 227.239 328.02C226.621 333.686 220.831 337.994 216.37 340.717L181.141 361.77C177.401 363.999 166.621 370.731 163.316 371.907C160.262 372.975 156.956 373.093 153.834 372.247C147.094 370.406 144.056 363.646 140.811 358.015L184.264 332.113C167.359 331.533 149.416 333.335 132.423 333.454C120.965 333.534 109.432 334.703 98.0121 332.851C83.6819 330.414 70.8856 322.443 62.3826 310.657C53.6811 298.351 50.1505 283.124 52.5481 268.242C55.13 252.536 63.6115 239.367 76.4719 230.107Z" fill="black"/>
<path d="M100.757 267.533C109.593 261.74 120.99 255.358 130.189 249.881L185.262 217.082L212.709 200.668C227.378 191.887 227.308 190.264 244.865 191.118C245.144 198.641 242.074 208.226 236.295 213.021C226.958 220.767 214.036 227.514 203.559 233.729L151.49 264.914L188.344 263.506C196.627 263.211 207.553 262.69 215.698 263.367C220.21 263.734 224.664 264.621 228.972 266.008C244.69 271.126 257.683 282.359 265.016 297.172C272.325 311.768 273.465 328.689 268.181 344.139C264.762 354.16 258.95 363.198 251.251 370.47C243.434 377.854 225.751 387.366 215.75 393.359C206.468 398.923 193.196 407.302 183.872 411.921C160.144 421.804 134.092 416.344 115.879 398.283C109.581 392.037 105.392 384.13 100.893 376.573L87.183 353.487C94.4351 352.644 106.89 352.724 114.429 352.549C118.868 360.135 128.356 377.41 133.827 382.747C140.786 389.506 150.194 393.146 159.892 392.832C164.835 392.724 169.71 391.661 174.25 389.7C181.109 386.738 193.855 378.62 200.914 374.313C209.801 368.889 221.782 362.419 230.094 356.703C232.363 355.165 234.464 353.392 236.362 351.414C256.106 330.617 248.983 298.283 222.207 288.831C212.62 285.446 192.664 287.444 181.635 287.793L123.812 289.545C117.293 289.744 104.406 291.533 99.5481 286.491C93.6053 280.324 94.6507 273.195 100.757 267.533Z" fill="black"/>
<path d="M268.328 282.161C280.243 274.52 293.802 266.791 306.038 259.479C308.274 263.176 316.882 276.982 317.902 279.777L317.32 280.527L278.6 303.551C275.999 295.03 272.806 289.656 268.328 282.161Z" fill="black"/>
</svg>
